<mxfile host="app.diagrams.net" agent="Mozilla/5.0 (Windows NT 10.0; Win64; x64) AppleWebKit/537.36 (KHTML, like Gecko) Chrome/131.0.0.0 Safari/537.36" version="25.0.1">
  <diagram name="第 1 页" id="vld_AIua7XIs_-yVO-ox">
    <mxGraphModel dx="1434" dy="738" grid="1" gridSize="10" guides="1" tooltips="1" connect="1" arrows="1" fold="1" page="1" pageScale="1" pageWidth="827" pageHeight="1169" math="0" shadow="0">
      <root>
        <mxCell id="0" />
        <mxCell id="1" parent="0" />
        <mxCell id="8MtyGTaQOfjxnfk6kIhd-4" value="" style="edgeStyle=orthogonalEdgeStyle;rounded=0;orthogonalLoop=1;jettySize=auto;html=1;fontStyle=1" edge="1" parent="1" source="8MtyGTaQOfjxnfk6kIhd-2" target="8MtyGTaQOfjxnfk6kIhd-3">
          <mxGeometry relative="1" as="geometry" />
        </mxCell>
        <mxCell id="8MtyGTaQOfjxnfk6kIhd-2" value="&lt;span&gt;功能开发完成&lt;/span&gt;" style="rounded=1;whiteSpace=wrap;html=1;sketch=1;curveFitting=1;jiggle=2;shadow=1;fillColor=#3333FF;fontStyle=1" vertex="1" parent="1">
          <mxGeometry x="60" y="190" width="120" height="60" as="geometry" />
        </mxCell>
        <mxCell id="8MtyGTaQOfjxnfk6kIhd-3" value="开发人员各自&lt;div&gt;完成自测&lt;/div&gt;" style="whiteSpace=wrap;html=1;rounded=1;fontStyle=1;fillColor=#6666FF;strokeColor=#000000;sketch=1;curveFitting=1;jiggle=2;shadow=1;" vertex="1" parent="1">
          <mxGeometry x="240" y="190" width="120" height="60" as="geometry" />
        </mxCell>
        <mxCell id="8MtyGTaQOfjxnfk6kIhd-9" value="" style="edgeStyle=orthogonalEdgeStyle;rounded=0;orthogonalLoop=1;jettySize=auto;html=1;fontStyle=1" edge="1" parent="1" source="8MtyGTaQOfjxnfk6kIhd-3" target="8MtyGTaQOfjxnfk6kIhd-7">
          <mxGeometry relative="1" as="geometry">
            <mxPoint x="350" y="220" as="sourcePoint" />
            <mxPoint x="430" y="220" as="targetPoint" />
          </mxGeometry>
        </mxCell>
        <mxCell id="8MtyGTaQOfjxnfk6kIhd-11" value="" style="edgeStyle=orthogonalEdgeStyle;rounded=0;orthogonalLoop=1;jettySize=auto;html=1;fontStyle=1" edge="1" parent="1" source="8MtyGTaQOfjxnfk6kIhd-7" target="8MtyGTaQOfjxnfk6kIhd-10">
          <mxGeometry relative="1" as="geometry" />
        </mxCell>
        <mxCell id="8MtyGTaQOfjxnfk6kIhd-15" value="否" style="edgeLabel;html=1;align=center;verticalAlign=middle;resizable=0;points=[];fontStyle=1" vertex="1" connectable="0" parent="8MtyGTaQOfjxnfk6kIhd-11">
          <mxGeometry x="-0.1746" y="3" relative="1" as="geometry">
            <mxPoint as="offset" />
          </mxGeometry>
        </mxCell>
        <mxCell id="8MtyGTaQOfjxnfk6kIhd-13" value="" style="edgeStyle=orthogonalEdgeStyle;rounded=0;orthogonalLoop=1;jettySize=auto;html=1;fontStyle=1" edge="1" parent="1" source="8MtyGTaQOfjxnfk6kIhd-7" target="8MtyGTaQOfjxnfk6kIhd-12">
          <mxGeometry relative="1" as="geometry" />
        </mxCell>
        <mxCell id="8MtyGTaQOfjxnfk6kIhd-16" value="是" style="edgeLabel;html=1;align=center;verticalAlign=middle;resizable=0;points=[];fontStyle=1" vertex="1" connectable="0" parent="8MtyGTaQOfjxnfk6kIhd-13">
          <mxGeometry x="-0.0667" relative="1" as="geometry">
            <mxPoint as="offset" />
          </mxGeometry>
        </mxCell>
        <mxCell id="8MtyGTaQOfjxnfk6kIhd-7" value="是否在feature分支上开发？" style="rhombus;whiteSpace=wrap;html=1;fontStyle=1;sketch=1;curveFitting=1;jiggle=2;rounded=1;shadow=1;fillColor=#f8cecc;strokeColor=#b85450;" vertex="1" parent="1">
          <mxGeometry x="414" y="180" width="86" height="80" as="geometry" />
        </mxCell>
        <mxCell id="8MtyGTaQOfjxnfk6kIhd-18" value="" style="edgeStyle=orthogonalEdgeStyle;rounded=0;orthogonalLoop=1;jettySize=auto;html=1;fontStyle=1" edge="1" parent="1" source="8MtyGTaQOfjxnfk6kIhd-10" target="8MtyGTaQOfjxnfk6kIhd-17">
          <mxGeometry relative="1" as="geometry" />
        </mxCell>
        <mxCell id="8MtyGTaQOfjxnfk6kIhd-10" value="从dev分支上创建一个&lt;div&gt;release/test-xx分支&lt;/div&gt;" style="whiteSpace=wrap;html=1;fontStyle=1;sketch=1;curveFitting=1;jiggle=2;shadow=1;rounded=1;fillColor=#d5e8d4;strokeColor=#82b366;" vertex="1" parent="1">
          <mxGeometry x="563" y="190" width="120" height="60" as="geometry" />
        </mxCell>
        <mxCell id="8MtyGTaQOfjxnfk6kIhd-14" style="edgeStyle=orthogonalEdgeStyle;rounded=0;orthogonalLoop=1;jettySize=auto;html=1;entryX=0.5;entryY=1;entryDx=0;entryDy=0;fontStyle=1" edge="1" parent="1" source="8MtyGTaQOfjxnfk6kIhd-12" target="8MtyGTaQOfjxnfk6kIhd-10">
          <mxGeometry relative="1" as="geometry" />
        </mxCell>
        <mxCell id="8MtyGTaQOfjxnfk6kIhd-12" value="将feature分支合并&lt;div&gt;到dev分支&lt;/div&gt;" style="whiteSpace=wrap;html=1;fontStyle=1;fillColor=#d5e8d4;strokeColor=#82b366;sketch=1;curveFitting=1;jiggle=2;shadow=1;rounded=1;" vertex="1" parent="1">
          <mxGeometry x="397" y="350" width="120" height="60" as="geometry" />
        </mxCell>
        <mxCell id="8MtyGTaQOfjxnfk6kIhd-20" value="" style="edgeStyle=orthogonalEdgeStyle;rounded=0;orthogonalLoop=1;jettySize=auto;html=1;fontStyle=1" edge="1" parent="1" source="8MtyGTaQOfjxnfk6kIhd-17" target="8MtyGTaQOfjxnfk6kIhd-19">
          <mxGeometry relative="1" as="geometry" />
        </mxCell>
        <mxCell id="8MtyGTaQOfjxnfk6kIhd-45" style="edgeStyle=orthogonalEdgeStyle;rounded=0;orthogonalLoop=1;jettySize=auto;html=1;entryX=0;entryY=0.5;entryDx=0;entryDy=0;fontStyle=1" edge="1" parent="1" source="8MtyGTaQOfjxnfk6kIhd-17" target="8MtyGTaQOfjxnfk6kIhd-44">
          <mxGeometry relative="1" as="geometry">
            <Array as="points">
              <mxPoint x="823" y="320" />
            </Array>
          </mxGeometry>
        </mxCell>
        <mxCell id="8MtyGTaQOfjxnfk6kIhd-17" value="基于release分支打包部署测试" style="whiteSpace=wrap;html=1;fontStyle=1;fillColor=#d5e8d4;strokeColor=#82b366;sketch=1;curveFitting=1;jiggle=2;shadow=1;rounded=1;" vertex="1" parent="1">
          <mxGeometry x="763" y="190" width="120" height="60" as="geometry" />
        </mxCell>
        <mxCell id="8MtyGTaQOfjxnfk6kIhd-28" value="" style="edgeStyle=orthogonalEdgeStyle;rounded=0;orthogonalLoop=1;jettySize=auto;html=1;fontStyle=1" edge="1" parent="1" source="8MtyGTaQOfjxnfk6kIhd-19" target="8MtyGTaQOfjxnfk6kIhd-27">
          <mxGeometry relative="1" as="geometry" />
        </mxCell>
        <mxCell id="8MtyGTaQOfjxnfk6kIhd-19" value="基于测试环境&lt;div&gt;进行api-fox自动化测试&lt;/div&gt;" style="whiteSpace=wrap;html=1;fontStyle=1;sketch=1;curveFitting=1;jiggle=2;shadow=1;rounded=1;fillColor=#e1d5e7;strokeColor=#000000;" vertex="1" parent="1">
          <mxGeometry x="963" y="190" width="120" height="60" as="geometry" />
        </mxCell>
        <mxCell id="8MtyGTaQOfjxnfk6kIhd-30" value="" style="edgeStyle=orthogonalEdgeStyle;rounded=0;orthogonalLoop=1;jettySize=auto;html=1;fontStyle=1" edge="1" parent="1" source="8MtyGTaQOfjxnfk6kIhd-27" target="8MtyGTaQOfjxnfk6kIhd-29">
          <mxGeometry relative="1" as="geometry">
            <Array as="points">
              <mxPoint x="1190" y="70" />
            </Array>
          </mxGeometry>
        </mxCell>
        <mxCell id="8MtyGTaQOfjxnfk6kIhd-31" value="否" style="edgeLabel;html=1;align=center;verticalAlign=middle;resizable=0;points=[];fontStyle=1" vertex="1" connectable="0" parent="8MtyGTaQOfjxnfk6kIhd-30">
          <mxGeometry x="0.0904" y="1" relative="1" as="geometry">
            <mxPoint as="offset" />
          </mxGeometry>
        </mxCell>
        <mxCell id="8MtyGTaQOfjxnfk6kIhd-48" value="" style="edgeStyle=orthogonalEdgeStyle;rounded=0;orthogonalLoop=1;jettySize=auto;html=1;fontStyle=1" edge="1" parent="1" source="8MtyGTaQOfjxnfk6kIhd-27" target="8MtyGTaQOfjxnfk6kIhd-47">
          <mxGeometry relative="1" as="geometry" />
        </mxCell>
        <mxCell id="8MtyGTaQOfjxnfk6kIhd-27" value="测试通过？" style="rhombus;whiteSpace=wrap;html=1;fontStyle=1;sketch=1;curveFitting=1;jiggle=2;rounded=1;shadow=1;fillColor=#f8cecc;strokeColor=#b85450;" vertex="1" parent="1">
          <mxGeometry x="1150" y="180" width="80" height="80" as="geometry" />
        </mxCell>
        <mxCell id="8MtyGTaQOfjxnfk6kIhd-32" style="edgeStyle=orthogonalEdgeStyle;rounded=0;orthogonalLoop=1;jettySize=auto;html=1;exitX=0.5;exitY=1;exitDx=0;exitDy=0;fontStyle=1" edge="1" parent="1" source="8MtyGTaQOfjxnfk6kIhd-29" target="8MtyGTaQOfjxnfk6kIhd-17">
          <mxGeometry relative="1" as="geometry" />
        </mxCell>
        <mxCell id="8MtyGTaQOfjxnfk6kIhd-33" value="重新打包部署" style="edgeLabel;html=1;align=center;verticalAlign=middle;resizable=0;points=[];fontStyle=1" vertex="1" connectable="0" parent="8MtyGTaQOfjxnfk6kIhd-32">
          <mxGeometry x="-0.1111" y="-3" relative="1" as="geometry">
            <mxPoint as="offset" />
          </mxGeometry>
        </mxCell>
        <mxCell id="8MtyGTaQOfjxnfk6kIhd-29" value="在release分支上&lt;div&gt;修复bug&lt;/div&gt;" style="whiteSpace=wrap;html=1;fontStyle=1;fillColor=#d5e8d4;strokeColor=#82b366;sketch=1;curveFitting=1;jiggle=2;shadow=1;rounded=1;" vertex="1" parent="1">
          <mxGeometry x="763" y="40" width="120" height="60" as="geometry" />
        </mxCell>
        <mxCell id="8MtyGTaQOfjxnfk6kIhd-46" style="edgeStyle=orthogonalEdgeStyle;rounded=0;orthogonalLoop=1;jettySize=auto;html=1;entryX=0.5;entryY=1;entryDx=0;entryDy=0;fontStyle=1" edge="1" parent="1" source="8MtyGTaQOfjxnfk6kIhd-44" target="8MtyGTaQOfjxnfk6kIhd-27">
          <mxGeometry relative="1" as="geometry" />
        </mxCell>
        <mxCell id="8MtyGTaQOfjxnfk6kIhd-44" value="前端和APP功能测试" style="whiteSpace=wrap;html=1;fontStyle=1;fillColor=#e1d5e7;strokeColor=#000000;sketch=1;curveFitting=1;jiggle=2;shadow=1;rounded=1;" vertex="1" parent="1">
          <mxGeometry x="963" y="290" width="120" height="60" as="geometry" />
        </mxCell>
        <mxCell id="8MtyGTaQOfjxnfk6kIhd-50" value="" style="edgeStyle=orthogonalEdgeStyle;rounded=0;orthogonalLoop=1;jettySize=auto;html=1;fontStyle=1" edge="1" parent="1" source="8MtyGTaQOfjxnfk6kIhd-47" target="8MtyGTaQOfjxnfk6kIhd-49">
          <mxGeometry relative="1" as="geometry" />
        </mxCell>
        <mxCell id="8MtyGTaQOfjxnfk6kIhd-47" value="合并分支到master，dev" style="whiteSpace=wrap;html=1;fontStyle=1;fillColor=#d5e8d4;strokeColor=#82b366;sketch=1;curveFitting=1;jiggle=2;shadow=1;rounded=1;" vertex="1" parent="1">
          <mxGeometry x="1290" y="190" width="120" height="60" as="geometry" />
        </mxCell>
        <mxCell id="8MtyGTaQOfjxnfk6kIhd-49" value="部署到线上" style="whiteSpace=wrap;html=1;fontStyle=1;fillColor=#fff2cc;strokeColor=#d6b656;sketch=1;curveFitting=1;jiggle=2;shadow=1;rounded=1;" vertex="1" parent="1">
          <mxGeometry x="1490" y="190" width="120" height="60" as="geometry" />
        </mxCell>
      </root>
    </mxGraphModel>
  </diagram>
</mxfile>
